# Wavefront OBJ file
# Exported by Misfit Model 3D 1.3.7
# Sun Oct 15 08:36:34 2017

mtllib alientank.mtl

# 46 Vertices
v 24.564003 -13.179378 48.226791
v 24.564005 -13.179378 -2.604782
v 24.564003 7.621159 48.226791
v 24.564005 7.621159 -2.604782
v -24.564003 -13.179378 -2.604783
v -24.564005 -13.179378 48.226788
v -24.564003 7.621159 -2.604783
v -24.564005 7.621159 48.226788
v 24.564003 -13.179378 48.226788
v 24.564005 -13.179378 -2.604782
v 24.564003 7.621159 48.226788
v 24.564005 7.621159 -2.604782
v -24.564003 -13.179378 -2.604783
v -24.564005 -13.179378 48.226788
v -24.564003 7.621159 -2.604783
v -24.564005 7.621159 48.226788
v -15.706585 -13.060753 -45.042896
v -15.878578 -13.060755 -2.59293
v -15.706587 -2.205359 -45.042896
v -15.878582 -2.205362 -2.59293
v 17.590014 -13.060755 -2.457328
v 17.762007 -13.060753 -44.907291
v 17.590012 -2.205362 -2.457327
v 17.762005 -2.205359 -44.907291
v 1.320884 21.015787 47.802944
v 15.324343 16.234518 47.802944
v 15.324345 6.671981 47.802944
v 1.320884 1.890712 47.802944
v -12.682576 6.67198 47.802944
v -12.682577 16.234518 47.802944
v 1.320886 21.015785 -1.800332
v 15.324347 16.234518 -1.800332
v 15.324347 6.671981 -1.800332
v 1.320887 1.890712 -1.800332
v -12.682573 6.67198 -1.800333
v -12.682575 16.234518 -1.800332
v 1.320884 11.45325 47.802944
v 1.320886 11.45325 -1.800332
v -15.706585 -13.060753 -45.042896
v -15.878578 -13.060756 -2.59293
v -15.706589 -2.205359 -45.042896
v -15.878582 -2.205362 -2.59293
v 17.590015 -13.060756 -2.457327
v 17.762005 -13.060753 -44.907291
v 17.590012 -2.205362 -2.457327
v 17.762003 -2.205359 -44.907291

# 216 Texture Coordinates
vt 0.0 0.596926
vt 0.403074 0.596926
vt 0.0 1.0
vt 0.403074 0.596926
vt 0.403074 1.0
vt 0.0 1.0
vt 0.0 0.594183
vt 0.405817 0.594183
vt 0.0 1.0
vt 0.405817 0.594183
vt 0.405817 1.0
vt 0.0 1.0
vt 0.40021 1.0
vt 0.0 0.59979
vt 0.40021 0.59979
vt 0.40021 1.0
vt 0.0 1.0
vt 0.0 0.59979
vt 0.0 1.0
vt 0.405008 0.594992
vt 0.0 0.594992
vt 0.0 1.0
vt 0.405008 1.0
vt 0.405008 0.594992
vt 0.402237 0.597763
vt 0.0 1.0
vt 0.0 0.597763
vt 0.402237 0.597763
vt 0.402237 1.0
vt 0.0 1.0
vt 0.0 1.0
vt 0.0 0.0
vt 1.0 0.0
vt 0.0 1.0
vt 0.0 0.0
vt 1.0 0.0
vt 0.0 0.596926
vt 0.403074 0.596926
vt 0.0 1.0
vt 0.403074 0.596926
vt 0.403074 1.0
vt 0.0 1.0
vt 0.0 0.594183
vt 0.405817 0.594183
vt 0.0 1.0
vt 0.405817 0.594183
vt 0.405817 1.0
vt 0.0 1.0
vt 0.40021 1.0
vt 0.0 0.59979
vt 0.40021 0.59979
vt 0.40021 1.0
vt 0.0 1.0
vt 0.0 0.59979
vt 0.0 1.0
vt 0.405008 0.594992
vt 0.0 0.594992
vt 0.0 1.0
vt 0.405008 1.0
vt 0.405008 0.594992
vt 0.402237 0.597763
vt 0.0 1.0
vt 0.0 0.597763
vt 0.402237 0.597763
vt 0.402237 1.0
vt 0.0 1.0
vt 0.0 1.0
vt 0.0 0.0
vt 1.0 0.0
vt 0.0 1.0
vt 0.0 0.0
vt 1.0 0.0
vt -0.002383 0.592044
vt 0.405573 0.592044
vt -0.002383 1.0
vt 0.405573 0.592044
vt 0.405573 1.0
vt -0.002383 1.0
vt 0.0 0.596787
vt 0.403213 0.596787
vt 0.0 1.0
vt 0.403213 0.596787
vt 0.403213 1.0
vt 0.0 1.0
vt 0.403991 1.0
vt 0.0 0.596009
vt 0.403991 0.596009
vt 0.403991 1.0
vt 0.0 1.0
vt 0.0 0.596009
vt 0.0 1.0
vt 0.0 0.0
vt 1.0 0.0
vt 0.0 1.0
vt 0.0 0.0
vt 1.0 0.0
vt 0.001796 0.597101
vt 0.40323 0.998534
vt 0.001796 0.998535
vt 0.001796 0.597101
vt 0.403229 0.5971
vt 0.40323 0.998534
vt 0.0 1.0
vt 0.0 0.0
vt 1.0 0.0
vt 0.0 1.0
vt 0.0 0.0
vt 1.0 0.0
vt 0.0 1.0
vt 0.0 0.86628
vt 0.401159 1.0
vt 0.0 0.86628
vt 0.401159 0.86628
vt 0.401159 1.0
vt 0.0 0.86628
vt 0.0 0.598841
vt 0.401159 0.86628
vt 0.0 0.598841
vt 0.401159 0.598841
vt 0.401159 0.86628
vt 0.0 1.0
vt 0.0 0.0
vt 1.0 0.0
vt 0.0 1.0
vt 0.0 0.0
vt 1.0 0.0
vt 0.0 1.0
vt 0.0 0.0
vt 1.0 0.0
vt 0.0 1.0
vt 0.0 0.0
vt 1.0 0.0
vt 0.400205 0.599795
vt 0.400205 0.866598
vt 0.0 0.599795
vt 0.400205 0.866598
vt 0.0 0.866598
vt 0.0 0.599795
vt 0.400205 0.866598
vt 0.400205 1.0
vt 0.0 0.866598
vt 0.400205 1.0
vt 0.0 1.0
vt 0.0 0.866598
vt 0.66556 0.778793
vt 0.439587 0.891779
vt 0.66556 1.004766
vt 0.66556 0.778793
vt 0.439587 0.665806
vt 0.439587 0.891779
vt 0.66556 0.778793
vt 0.66556 0.55282
vt 0.439587 0.665806
vt 0.66556 0.778793
vt 0.891534 0.665806
vt 0.66556 0.55282
vt 0.66556 0.778793
vt 0.891534 0.891779
vt 0.891534 0.665806
vt 0.66556 0.778793
vt 0.66556 1.004766
vt 0.891534 0.891779
vt 0.66632 0.784275
vt 0.66632 1.012724
vt 0.89477 0.898499
vt 0.66632 0.784275
vt 0.89477 0.898499
vt 0.89477 0.67005
vt 0.66632 0.784275
vt 0.89477 0.67005
vt 0.66632 0.555826
vt 0.66632 0.784275
vt 0.66632 0.555826
vt 0.437871 0.67005
vt 0.66632 0.784275
vt 0.437871 0.67005
vt 0.437871 0.898499
vt 0.66632 0.784275
vt 0.437871 0.898499
vt 0.66632 1.012724
vt -0.002383 0.592044
vt 0.405573 0.592044
vt -0.002383 1.0
vt 0.405573 0.592044
vt 0.405573 1.0
vt -0.002383 1.0
vt 0.0 0.596787
vt 0.403213 0.596787
vt 0.0 1.0
vt 0.403213 0.596787
vt 0.403213 1.0
vt 0.0 1.0
vt 0.403991 1.0
vt 0.0 0.596009
vt 0.403991 0.596009
vt 0.403991 1.0
vt 0.0 1.0
vt 0.0 0.596009
vt 0.0 1.0
vt 0.0 0.0
vt 1.0 0.0
vt 0.0 1.0
vt 0.0 0.0
vt 1.0 0.0
vt 0.001796 0.597101
vt 0.40323 0.998534
vt 0.001796 0.998535
vt 0.001796 0.597101
vt 0.403229 0.5971
vt 0.40323 0.998534
vt 0.0 1.0
vt 0.0 0.0
vt 1.0 0.0
vt 0.0 1.0
vt 0.0 0.0
vt 1.0 0.0

# 216 Vertex Normals
vn 1.0 0.0 0.0
vn 1.0 0.0 0.0
vn 1.0 0.0 0.0
vn 1.0 0.0 0.0
vn 1.0 0.0 0.0
vn 1.0 0.0 0.0
vn -1.0 0.0 -0.0
vn -1.0 0.0 -0.0
vn -1.0 0.0 -0.0
vn -1.0 0.0 -0.0
vn -1.0 0.0 -0.0
vn -1.0 0.0 -0.0
vn -0.0 0.0 1.0
vn -0.0 0.0 1.0
vn -0.0 0.0 1.0
vn -0.0 0.0 1.0
vn -0.0 0.0 1.0
vn -0.0 0.0 1.0
vn 0.0 0.0 -1.0
vn 0.0 0.0 -1.0
vn 0.0 0.0 -1.0
vn 0.0 0.0 -1.0
vn 0.0 0.0 -1.0
vn 0.0 0.0 -1.0
vn 0.0 1.0 0.0
vn 0.0 1.0 0.0
vn 0.0 1.0 0.0
vn 0.0 1.0 0.0
vn 0.0 1.0 0.0
vn 0.0 1.0 0.0
vn 0.0 -1.0 0.0
vn 0.0 -1.0 0.0
vn 0.0 -1.0 0.0
vn 0.0 -1.0 0.0
vn 0.0 -1.0 0.0
vn 0.0 -1.0 0.0
vn 1.0 0.0 0.0
vn 1.0 0.0 0.0
vn 1.0 0.0 0.0
vn 1.0 0.0 0.0
vn 1.0 0.0 0.0
vn 1.0 0.0 0.0
vn -1.0 0.0 -0.0
vn -1.0 0.0 -0.0
vn -1.0 0.0 -0.0
vn -1.0 0.0 -0.0
vn -1.0 0.0 -0.0
vn -1.0 0.0 -0.0
vn 0.0 0.0 1.0
vn 0.0 0.0 1.0
vn 0.0 0.0 1.0
vn 0.0 0.0 1.0
vn 0.0 0.0 1.0
vn 0.0 0.0 1.0
vn 0.0 0.0 -1.0
vn 0.0 0.0 -1.0
vn 0.0 0.0 -1.0
vn 0.0 0.0 -1.0
vn 0.0 0.0 -1.0
vn 0.0 0.0 -1.0
vn 0.0 1.0 0.0
vn 0.0 1.0 0.0
vn 0.0 1.0 0.0
vn 0.0 1.0 0.0
vn 0.0 1.0 0.0
vn 0.0 1.0 0.0
vn 0.0 -1.0 0.0
vn 0.0 -1.0 0.0
vn 0.0 -1.0 0.0
vn 0.0 -1.0 0.0
vn 0.0 -1.0 0.0
vn 0.0 -1.0 0.0
vn -0.999992 -0.0 -0.004052
vn -0.999992 -0.0 -0.004052
vn -0.999992 -0.0 -0.004052
vn -0.999992 -0.0 -0.004052
vn -0.999992 -0.0 -0.004052
vn -0.999992 -0.0 -0.004052
vn 0.999992 0.0 0.004052
vn 0.999992 0.0 0.004052
vn 0.999992 0.0 0.004052
vn 0.999992 0.0 0.004052
vn 0.999992 0.0 0.004052
vn 0.999992 0.0 0.004052
vn 0.004052 0.0 -0.999992
vn 0.004052 0.0 -0.999992
vn 0.004052 0.0 -0.999992
vn 0.004052 0.0 -0.999992
vn 0.004052 0.0 -0.999992
vn 0.004052 0.0 -0.999992
vn -0.004052 -0.0 0.999992
vn -0.004052 -0.0 0.999992
vn -0.004052 -0.0 0.999992
vn -0.004052 -0.0 0.999992
vn -0.004052 -0.0 0.999992
vn -0.004052 -0.0 0.999992
vn -0.0 1.0 0.0
vn -0.0 1.0 0.0
vn -0.0 1.0 0.0
vn -0.0 1.0 0.0
vn -0.0 1.0 0.0
vn -0.0 1.0 0.0
vn 0.0 -1.0 -0.0
vn 0.0 -1.0 -0.0
vn 0.0 -1.0 -0.0
vn 0.0 -1.0 -0.0
vn 0.0 -1.0 -0.0
vn 0.0 -1.0 -0.0
vn -0.113082 0.993586 -0.0
vn 0.656269 0.754527 0.0
vn 0.113082 0.993586 -0.0
vn 0.656269 0.754527 0.0
vn 0.926106 0.377263 0.0
vn 0.113082 0.993586 -0.0
vn 0.656269 0.754527 0.0
vn 0.926106 -0.377263 0.0
vn 0.926106 0.377263 0.0
vn 0.926106 -0.377263 0.0
vn 0.656269 -0.754527 0.0
vn 0.926106 0.377263 0.0
vn 0.926106 -0.377263 0.0
vn 0.113082 -0.993586 0.0
vn 0.656269 -0.754527 0.0
vn 0.113082 -0.993586 0.0
vn -0.113082 -0.993586 -0.0
vn 0.32312 -0.946358 0.0
vn 0.113082 -0.993586 0.0
vn -0.656269 -0.754527 -0.0
vn -0.113082 -0.993586 -0.0
vn -0.32312 -0.946358 -0.0
vn -0.32312 -0.946358 -0.0
vn -0.113082 -0.993586 -0.0
vn -0.656269 -0.754527 -0.0
vn -0.926106 0.377263 -0.0
vn -0.926106 -0.377263 -0.0
vn -0.926106 0.377263 -0.0
vn -0.656269 0.754527 -0.0
vn -0.926106 -0.377263 -0.0
vn -0.926106 0.377263 -0.0
vn -0.113082 0.993586 -0.0
vn -0.656269 0.754527 -0.0
vn -0.113082 0.993586 -0.0
vn 0.113082 0.993586 -0.0
vn -0.656269 0.754527 -0.0
vn 0.0 -0.0 1.0
vn 0.0 -0.0 1.0
vn 0.0 0.0 1.0
vn 0.0 -0.0 1.0
vn 0.0 -0.0 1.0
vn 0.0 -0.0 1.0
vn 0.0 -0.0 1.0
vn 0.0 0.0 1.0
vn 0.0 -0.0 1.0
vn 0.0 -0.0 1.0
vn 0.0 0.0 1.0
vn 0.0 0.0 1.0
vn 0.0 -0.0 1.0
vn 0.0 0.0 1.0
vn 0.0 0.0 1.0
vn 0.0 -0.0 1.0
vn 0.0 0.0 1.0
vn 0.0 0.0 1.0
vn 0.0 0.0 -1.0
vn 0.0 0.0 -1.0
vn 0.0 0.0 -1.0
vn 0.0 0.0 -1.0
vn 0.0 0.0 -1.0
vn 0.0 0.0 -1.0
vn 0.0 0.0 -1.0
vn 0.0 0.0 -1.0
vn 0.0 0.0 -1.0
vn 0.0 0.0 -1.0
vn 0.0 0.0 -1.0
vn 0.0 0.0 -1.0
vn 0.0 0.0 -1.0
vn 0.0 0.0 -1.0
vn 0.0 0.0 -1.0
vn 0.0 0.0 -1.0
vn 0.0 0.0 -1.0
vn 0.0 0.0 -1.0
vn -0.999992 -0.0 -0.004052
vn -0.999992 -0.0 -0.004052
vn -0.999992 -0.0 -0.004052
vn -0.999992 -0.0 -0.004052
vn -0.999992 -0.0 -0.004052
vn -0.999992 -0.0 -0.004052
vn 0.999992 0.0 0.004052
vn 0.999992 0.0 0.004052
vn 0.999992 0.0 0.004052
vn 0.999992 0.0 0.004052
vn 0.999992 0.0 0.004052
vn 0.999992 0.0 0.004052
vn 0.004052 0.0 -0.999992
vn 0.004052 0.0 -0.999992
vn 0.004052 0.0 -0.999992
vn 0.004052 0.0 -0.999992
vn 0.004052 0.0 -0.999992
vn 0.004052 0.0 -0.999992
vn -0.004052 0.0 0.999992
vn -0.004052 0.0 0.999992
vn -0.004052 0.0 0.999992
vn -0.004052 0.0 0.999992
vn -0.004052 0.0 0.999992
vn -0.004052 0.0 0.999992
vn -0.0 1.0 0.0
vn -0.0 1.0 0.0
vn -0.0 1.0 0.0
vn -0.0 1.0 0.0
vn 0.0 1.0 0.0
vn -0.0 1.0 0.0
vn 0.0 -1.0 -0.0
vn 0.0 -1.0 -0.0
vn 0.0 -1.0 -0.0
vn 0.0 -1.0 -0.0
vn 0.0 -1.0 -0.0
vn 0.0 -1.0 -0.0

# 6 Ungrouped triangles

o ungrouped
g ungrouped

f 23/91/91 18/92/92 21/93/93
f 23/94/94 20/95/95 18/96/96
f 28/124/124 34/125/125 33/126/126
f 29/130/130 35/131/131 34/132/132
f 45/199/199 40/200/200 43/201/201
f 45/202/202 42/203/203 40/204/204
# fronttop, 2 grouped triangles

usemtl tex
o fronttop
g fronttop

f 19/97/97 23/98/98 24/99/99
f 19/100/100 20/101/101 23/102/102
# frontleft, 2 grouped triangles

usemtl tex
o frontleft
g frontleft

f 17/73/73 18/74/74 19/75/75
f 18/76/76 20/77/77 19/78/78
# frontright, 2 grouped triangles

usemtl tex
o frontright
g frontright

f 21/79/79 22/80/80 23/81/81
f 22/82/82 24/83/83 23/84/84
# frontfront, 2 grouped triangles

usemtl tex
o frontfront
g frontfront

f 19/85/85 22/86/86 17/87/87
f 19/88/88 24/89/89 22/90/90
# fronttop, 2 grouped triangles

usemtl alientank
o fronttop
g fronttop

f 41/205/205 45/206/206 46/207/207
f 41/208/208 42/209/209 45/210/210
# frontleft, 2 grouped triangles

usemtl alientank
o frontleft
g frontleft

f 39/181/181 40/182/182 41/183/183
f 40/184/184 42/185/185 41/186/186
# frontright, 2 grouped triangles

usemtl alientank
o frontright
g frontright

f 43/187/187 44/188/188 45/189/189
f 44/190/190 46/191/191 45/192/192
# frontfront, 2 grouped triangles

usemtl alientank
o frontfront
g frontfront

f 41/193/193 44/194/194 39/195/195
f 41/196/196 46/197/197 44/198/198
# mainback, 4 grouped triangles

usemtl tex
o mainback
g mainback

f 3/13/13 6/14/14 1/15/15
f 3/16/16 8/17/17 6/18/18
f 11/49/49 14/50/50 9/51/51
f 11/52/52 16/53/53 14/54/54
# mainfront, 4 grouped triangles

usemtl tex
o mainfront
g mainfront

f 7/19/19 2/20/20 5/21/21
f 7/22/22 4/23/23 2/24/24
f 15/55/55 10/56/56 13/57/57
f 15/58/58 12/59/59 10/60/60
# maintop, 4 grouped triangles

usemtl tex
o maintop
g maintop

f 3/25/25 7/26/26 8/27/27
f 3/28/28 4/29/29 7/30/30
f 11/61/61 15/62/62 16/63/63
f 11/64/64 12/65/65 15/66/66
# mainright, 4 grouped triangles

usemtl tex
o mainright
g mainright

f 5/7/7 6/8/8 7/9/9
f 6/10/10 8/11/11 7/12/12
f 13/43/43 14/44/44 15/45/45
f 14/46/46 16/47/47 15/48/48
# mainleft, 4 grouped triangles

usemtl tex
o mainleft
g mainleft

f 1/1/1 2/2/2 3/3/3
f 2/4/4 4/5/5 3/6/6
f 9/37/37 10/38/38 11/39/39
f 10/40/40 12/41/41 11/42/42
# topfront, 6 grouped triangles

usemtl tex
o topfront
g topfront

f 38/163/163 31/164/164 32/165/165
f 38/166/166 32/167/167 33/168/168
f 38/169/169 33/170/170 34/171/171
f 38/172/172 34/173/173 35/174/174
f 38/175/175 35/176/176 36/177/177
f 38/178/178 36/179/179 31/180/180
# topback, 6 grouped triangles

usemtl tex
o topback
g topback

f 37/145/145 26/146/146 25/147/147
f 37/148/148 27/149/149 26/150/150
f 37/151/151 28/152/152 27/153/153
f 37/154/154 29/155/155 28/156/156
f 37/157/157 30/158/158 29/159/159
f 37/160/160 25/161/161 30/162/162
# tophalftopleft, 4 grouped triangles

usemtl tex
o tophalftopleft
g tophalftopleft

f 25/109/109 26/110/110 31/111/111
f 26/112/112 32/113/113 31/114/114
f 26/115/115 27/116/116 32/117/117
f 27/118/118 33/119/119 32/120/120
# tophalftopright, 4 grouped triangles

usemtl tex
o tophalftopright
g tophalftopright

f 29/133/133 30/134/134 35/135/135
f 30/136/136 36/137/137 35/138/138
f 30/139/139 25/140/140 36/141/141
f 25/142/142 31/143/143 36/144/144
# bottom, 10 grouped triangles

usemtl tex
o bottom
g bottom

f 2/31/31 6/32/32 5/33/33
f 2/34/34 1/35/35 6/36/36
f 10/67/67 14/68/68 13/69/69
f 10/70/70 9/71/71 14/72/72
f 18/103/103 22/104/104 21/105/105
f 18/106/106 17/107/107 22/108/108
f 27/121/121 28/122/122 33/123/123
f 28/127/127 29/128/128 34/129/129
f 40/211/211 44/212/212 43/213/213
f 40/214/214 39/215/215 44/216/216
